<svg width="171" height="61" viewBox="0 0 171 61" fill="none" xmlns="http://www.w3.org/2000/svg">
    <rect x="0.995117" y="0.361328" width="169.009" height="60.0032" rx="8.00042" fill="#090D17"/>
    <path fill-rule="evenodd" clip-rule="evenodd" d="M45.6508 41.1151C46.5359 39.765 46.8659 39.0749 47.541 37.5597C42.5604 35.6695 41.7653 28.5737 46.6859 25.8584C45.1857 23.9682 43.0705 22.873 41.0753 22.873C39.6351 22.873 38.645 23.2481 37.7599 23.5931C37.0098 23.8782 36.3347 24.1332 35.4946 24.1332C34.5945 24.1332 33.7994 23.8482 32.9593 23.5481C32.0442 23.2181 31.0841 22.873 29.884 22.873C27.6487 22.873 25.2635 24.2382 23.7483 26.5785C21.6181 29.8788 21.9931 36.0595 25.4285 41.3401C26.6586 43.2304 28.3088 45.3456 30.4541 45.3756C31.3542 45.3906 31.9392 45.1206 32.5843 44.8356C33.3194 44.5055 34.1145 44.1454 35.5096 44.1454C36.9048 44.1304 37.6849 44.5055 38.42 44.8356C39.05 45.1206 39.6201 45.3906 40.5052 45.3756C42.6804 45.3456 44.4206 43.0053 45.6508 41.1151Z" fill="white"/>
    <path fill-rule="evenodd" clip-rule="evenodd" d="M40.7587 15.3721C40.9987 17.0221 40.3237 18.6571 39.4387 19.7971C38.4937 21.0271 36.8437 21.9871 35.2537 21.9271C34.9687 20.3371 35.7037 18.7021 36.6037 17.6071C37.6087 16.4071 39.3037 15.4771 40.7587 15.3721Z" fill="white"/>
    <path d="M74.2749 21.2742C74.2749 22.6096 73.9057 23.651 73.1674 24.3984C72.4337 25.1458 71.4082 25.5195 70.0911 25.5195C68.7147 25.5195 67.6164 25.0547 66.796 24.1249C65.9802 23.1906 65.5723 21.9396 65.5723 20.3718C65.5723 18.8314 65.9802 17.6054 66.796 16.6939C67.6118 15.7824 68.7102 15.3266 70.0911 15.3266C71.1576 15.3266 72.0645 15.6206 72.8119 16.2085C73.5639 16.7919 74.0311 17.5735 74.2134 18.5533H72.9213C72.7162 17.8879 72.3653 17.3729 71.8685 17.0083C71.3763 16.6437 70.7838 16.4614 70.0911 16.4614C69.0748 16.4614 68.2772 16.8078 67.6984 17.5006C67.1241 18.1887 66.837 19.1436 66.837 20.365C66.837 21.6046 67.1287 22.5845 67.7121 23.3046C68.2954 24.0247 69.0884 24.3847 70.0911 24.3847C70.9661 24.3847 71.6771 24.1272 72.224 23.6122C72.7709 23.0927 73.0444 22.4204 73.0444 21.5955V21.4178H70.262V20.3376H74.2749V21.2742ZM78.5202 19.1549C77.9688 19.1549 77.5108 19.3464 77.1462 19.7292C76.7861 20.1075 76.5879 20.5951 76.5514 21.1922H80.4139C80.4002 20.5906 80.2202 20.1006 79.8738 19.7224C79.5275 19.3441 79.0763 19.1549 78.5202 19.1549ZM80.3866 23.3183H81.5556C81.4507 23.9472 81.1226 24.4645 80.5711 24.8701C80.0242 25.2757 79.3657 25.4785 78.5954 25.4785C77.5791 25.4785 76.7793 25.1504 76.1959 24.4941C75.6125 23.8378 75.3209 22.9491 75.3209 21.8279C75.3209 20.7159 75.6125 19.8203 76.1959 19.1413C76.7838 18.4622 77.5654 18.1227 78.5408 18.1227C79.4978 18.1227 80.2544 18.444 80.8104 19.0866C81.3664 19.7292 81.6444 20.5906 81.6444 21.6707V22.1219H76.5446V22.1903C76.5446 22.8739 76.7314 23.4208 77.1051 23.831C77.4789 24.2412 77.9847 24.4462 78.6228 24.4462C79.0694 24.4462 79.45 24.3437 79.7645 24.1386C80.0789 23.9335 80.2863 23.6601 80.3866 23.3183ZM83.2305 16.5298H84.42V18.2457H85.8009V19.2233H84.42V23.4481C84.42 23.7717 84.4906 24.011 84.6319 24.166C84.7732 24.3164 84.9965 24.3916 85.3019 24.3916C85.4933 24.3916 85.6573 24.3802 85.7941 24.3574V25.3555C85.6391 25.3919 85.3885 25.4102 85.0421 25.4102C84.3904 25.4102 83.9255 25.2643 83.6475 24.9726C83.3695 24.681 83.2305 24.1933 83.2305 23.5097V19.2233H82.1708V18.2457H83.2305V16.5298ZM90.0052 25.3555V18.2457H91.1948V25.3555H90.0052ZM90.6 17.0494C90.3995 17.0494 90.2263 16.9764 90.0804 16.8306C89.9346 16.6848 89.8617 16.5116 89.8617 16.311C89.8617 16.106 89.9346 15.9328 90.0804 15.7915C90.2263 15.6456 90.3995 15.5727 90.6 15.5727C90.8051 15.5727 90.9805 15.6456 91.1264 15.7915C91.2722 15.9328 91.3451 16.106 91.3451 16.311C91.3451 16.5116 91.2722 16.6848 91.1264 16.8306C90.9805 16.9764 90.8051 17.0494 90.6 17.0494ZM93.1841 16.5298H94.3736V18.2457H95.7546V19.2233H94.3736V23.4481C94.3736 23.7717 94.4443 24.011 94.5856 24.166C94.7268 24.3164 94.9502 24.3916 95.2555 24.3916C95.4469 24.3916 95.611 24.3802 95.7477 24.3574V25.3555C95.5928 25.3919 95.3421 25.4102 94.9957 25.4102C94.344 25.4102 93.8791 25.2643 93.6011 24.9726C93.3231 24.681 93.1841 24.1933 93.1841 23.5097V19.2233H92.1245V18.2457H93.1841V16.5298ZM102.844 25.4785C101.85 25.4785 101.053 25.1481 100.451 24.4873C99.8495 23.8219 99.5487 22.9263 99.5487 21.8006C99.5487 20.6749 99.8495 19.7816 100.451 19.1208C101.053 18.4554 101.85 18.1227 102.844 18.1227C103.833 18.1227 104.628 18.4554 105.23 19.1208C105.831 19.7816 106.132 20.6749 106.132 21.8006C106.132 22.9217 105.831 23.815 105.23 24.4804C104.628 25.1458 103.833 25.4785 102.844 25.4785ZM101.319 23.7353C101.698 24.2001 102.206 24.4326 102.844 24.4326C103.482 24.4326 103.988 24.2024 104.361 23.7421C104.735 23.2772 104.922 22.6301 104.922 21.8006C104.922 20.9711 104.735 20.3262 104.361 19.8659C103.988 19.4011 103.482 19.1686 102.844 19.1686C102.206 19.1686 101.698 19.4011 101.319 19.8659C100.946 20.3308 100.759 20.9757 100.759 21.8006C100.759 22.6255 100.946 23.2704 101.319 23.7353ZM107.335 25.3555V18.2457H108.456V19.3805H108.484C108.689 18.984 108.983 18.6764 109.366 18.4576C109.748 18.2343 110.207 18.1227 110.74 18.1227C111.515 18.1227 112.118 18.3574 112.551 18.8268C112.984 19.2917 113.201 19.9297 113.201 20.741V25.3555H112.011V20.9529C112.011 20.3741 111.875 19.9343 111.601 19.6335C111.328 19.3281 110.92 19.1755 110.377 19.1755C109.817 19.1755 109.368 19.3578 109.031 19.7224C108.693 20.087 108.525 20.5701 108.525 21.1717V25.3555H107.335Z" fill="white" fill-opacity="0.7"/>
    <path d="M73.3588 45.3545L72.3979 42.4403H68.2492L67.2882 45.3545H65.21L69.2102 34.0805H71.4837L75.484 45.3545H73.3588ZM70.2962 36.0727L68.718 40.8855H71.9213L70.3509 36.0727H70.2962ZM81.0467 36.9322C82.0989 36.9322 82.9349 37.315 83.5547 38.0807C84.1745 38.8463 84.4844 39.8907 84.4844 41.2136C84.4844 42.5314 84.1771 43.5731 83.5625 44.3388C82.9479 45.1045 82.1197 45.4873 81.078 45.4873C80.4842 45.4873 79.9608 45.3545 79.5076 45.0889C79.0545 44.818 78.7133 44.4482 78.4841 43.9794H78.445V48.0812H76.4996V37.0728H78.3982V38.5026H78.4372C78.6768 38.013 79.0232 37.6301 79.4764 37.3541C79.9295 37.0728 80.453 36.9322 81.0467 36.9322ZM80.453 43.8935C81.0832 43.8935 81.5806 43.6539 81.9452 43.1747C82.3098 42.6903 82.4921 42.0366 82.4921 41.2136C82.4921 40.3959 82.3072 39.7448 81.9374 39.2604C81.5728 38.776 81.078 38.5338 80.453 38.5338C79.8488 38.5338 79.3618 38.7786 78.992 39.2682C78.6221 39.7578 78.4346 40.4063 78.4294 41.2136C78.4346 42.0262 78.6221 42.6773 78.992 43.1669C79.3618 43.6513 79.8488 43.8935 80.453 43.8935ZM90.2816 36.9322C91.3338 36.9322 92.1697 37.315 92.7896 38.0807C93.4094 38.8463 93.7193 39.8907 93.7193 41.2136C93.7193 42.5314 93.412 43.5731 92.7974 44.3388C92.1828 45.1045 91.3546 45.4873 90.3129 45.4873C89.7191 45.4873 89.1956 45.3545 88.7425 45.0889C88.2893 44.818 87.9482 44.4482 87.719 43.9794H87.6799V48.0812H85.7345V37.0728H87.633V38.5026H87.6721C87.9117 38.013 88.2581 37.6301 88.7112 37.3541C89.1644 37.0728 89.6878 36.9322 90.2816 36.9322ZM89.6878 43.8935C90.3181 43.8935 90.8155 43.6539 91.1801 43.1747C91.5447 42.6903 91.727 42.0366 91.727 41.2136C91.727 40.3959 91.5421 39.7448 91.1723 39.2604C90.8077 38.776 90.3129 38.5338 89.6878 38.5338C89.0836 38.5338 88.5966 38.7786 88.2268 39.2682C87.857 39.7578 87.6695 40.4063 87.6643 41.2136C87.6695 42.0262 87.857 42.6773 88.2268 43.1669C88.5966 43.6513 89.0836 43.8935 89.6878 43.8935ZM95.0241 45.3545V34.0805H96.9695V45.3545H95.0241ZM102.196 38.4088C101.655 38.4088 101.201 38.5963 100.837 38.9713C100.477 39.3412 100.277 39.8177 100.235 40.4011H104.103C104.082 39.8125 103.897 39.3333 103.548 38.9635C103.199 38.5937 102.748 38.4088 102.196 38.4088ZM104.11 42.8778H105.931C105.806 43.6643 105.407 44.3024 104.736 44.792C104.064 45.2764 103.241 45.5186 102.267 45.5186C101.027 45.5186 100.053 45.1383 99.3446 44.3779C98.6362 43.6122 98.282 42.5679 98.282 41.2449C98.282 39.9323 98.6336 38.8802 99.3368 38.0885C100.045 37.2968 100.996 36.9009 102.188 36.9009C103.36 36.9009 104.29 37.2785 104.978 38.0338C105.665 38.7838 106.009 39.7891 106.009 41.0496V41.6824H100.22V41.7996C100.22 42.4663 100.407 43.0028 100.782 43.4091C101.162 43.8153 101.67 44.0185 102.306 44.0185C102.754 44.0185 103.139 43.9169 103.462 43.7138C103.79 43.5054 104.006 43.2268 104.11 42.8778ZM110.205 42.1824H112.158C112.22 42.6981 112.486 43.1148 112.955 43.4325C113.423 43.745 114.004 43.9013 114.697 43.9013C115.374 43.9013 115.926 43.7502 116.353 43.4481C116.786 43.146 117.002 42.7606 117.002 42.2918C117.002 41.8856 116.846 41.5574 116.533 41.3074C116.22 41.0522 115.71 40.8412 115.002 40.6746L113.541 40.3308C112.504 40.0912 111.733 39.7188 111.228 39.2135C110.728 38.7083 110.478 38.052 110.478 37.2447C110.478 36.2498 110.869 35.4425 111.65 34.8227C112.431 34.2029 113.439 33.8929 114.674 33.8929C115.913 33.8929 116.911 34.2003 117.666 34.8149C118.426 35.4243 118.82 36.2264 118.846 37.2212H116.924C116.877 36.6952 116.65 36.2837 116.244 35.9868C115.838 35.6847 115.309 35.5337 114.658 35.5337C114.022 35.5337 113.507 35.6769 113.111 35.9634C112.72 36.2498 112.525 36.6275 112.525 37.0962C112.525 37.4713 112.676 37.776 112.978 38.0104C113.285 38.2447 113.785 38.4453 114.478 38.6119L115.775 38.9088C116.916 39.1693 117.744 39.5495 118.26 40.0495C118.775 40.5495 119.033 41.2189 119.033 42.0574C119.033 43.1252 118.632 43.9742 117.83 44.6045C117.033 45.2295 115.952 45.542 114.588 45.542C113.285 45.542 112.239 45.2425 111.447 44.6435C110.66 44.0393 110.246 43.219 110.205 42.1824ZM120.9 35.1352H122.846V37.0728H124.408V38.5729H122.846V42.8778C122.846 43.2164 122.927 43.4664 123.088 43.6278C123.25 43.7893 123.502 43.87 123.846 43.87C124.075 43.87 124.26 43.857 124.401 43.831V45.3154C124.166 45.3675 123.83 45.3936 123.393 45.3936C122.497 45.3936 121.856 45.2217 121.471 44.8779C121.091 44.5341 120.9 43.9586 120.9 43.1513V38.5729H119.713V37.0728H120.9V35.1352ZM132.167 44.3701C131.443 45.1357 130.469 45.5186 129.245 45.5186C128.021 45.5186 127.047 45.1357 126.323 44.3701C125.599 43.5992 125.237 42.5471 125.237 41.2136C125.237 39.8855 125.601 38.8359 126.33 38.065C127.06 37.289 128.031 36.9009 129.245 36.9009C130.463 36.9009 131.435 37.289 132.159 38.065C132.888 38.8359 133.253 39.8855 133.253 41.2136C133.253 42.5471 132.891 43.5992 132.167 44.3701ZM127.76 43.2528C128.125 43.7372 128.62 43.9794 129.245 43.9794C129.87 43.9794 130.364 43.7372 130.729 43.2528C131.094 42.7684 131.276 42.0887 131.276 41.2136C131.276 40.3438 131.094 39.6667 130.729 39.1823C130.364 38.6927 129.87 38.4479 129.245 38.4479C128.625 38.4479 128.13 38.6927 127.76 39.1823C127.396 39.6667 127.213 40.3438 127.213 41.2136C127.213 42.0887 127.396 42.7684 127.76 43.2528ZM134.503 45.3545V37.0728H136.37V38.5182H136.409C136.55 38.013 136.792 37.6223 137.136 37.3463C137.485 37.0702 137.904 36.9322 138.394 36.9322C138.565 36.9322 138.769 36.9582 139.003 37.0103V38.7682C138.81 38.6953 138.547 38.6588 138.214 38.6588C137.662 38.6588 137.229 38.8255 136.917 39.1589C136.604 39.4922 136.448 39.9506 136.448 40.5339V45.3545H134.503ZM143.261 38.4088C142.719 38.4088 142.266 38.5963 141.902 38.9713C141.542 39.3412 141.342 39.8177 141.3 40.4011H145.167C145.147 39.8125 144.962 39.3333 144.613 38.9635C144.264 38.5937 143.813 38.4088 143.261 38.4088ZM145.175 42.8778H146.996C146.871 43.6643 146.472 44.3024 145.8 44.792C145.128 45.2764 144.305 45.5186 143.331 45.5186C142.092 45.5186 141.118 45.1383 140.409 44.3779C139.701 43.6122 139.347 42.5679 139.347 41.2449C139.347 39.9323 139.698 38.8802 140.401 38.0885C141.11 37.2968 142.06 36.9009 143.253 36.9009C144.425 36.9009 145.355 37.2785 146.042 38.0338C146.73 38.7838 147.074 39.7891 147.074 41.0496V41.6824H141.284V41.7996C141.284 42.4663 141.472 43.0028 141.847 43.4091C142.227 43.8153 142.735 44.0185 143.37 44.0185C143.818 44.0185 144.204 43.9169 144.527 43.7138C144.855 43.5054 145.071 43.2268 145.175 42.8778Z" fill="white"/>
</svg>
