<svg width="170" height="61" viewBox="0 0 170 61" fill="none" xmlns="http://www.w3.org/2000/svg">
    <rect x="0.00390625" y="0.360352" width="169" height="60" rx="8" fill="#090D17"/>
    <path d="M73.2793 21.2822C73.2793 22.6175 72.9102 23.6589 72.1719 24.4062C71.4382 25.1536 70.4128 25.5273 69.0957 25.5273C67.7194 25.5273 66.6211 25.0625 65.8008 24.1328C64.985 23.1986 64.5771 21.9476 64.5771 20.3799C64.5771 18.8395 64.985 17.6136 65.8008 16.7021C66.6165 15.7907 67.7148 15.335 69.0957 15.335C70.1621 15.335 71.069 15.6289 71.8164 16.2168C72.5684 16.8001 73.0355 17.5817 73.2178 18.5615H71.9258C71.7207 17.8962 71.3698 17.3812 70.873 17.0166C70.3809 16.652 69.7884 16.4697 69.0957 16.4697C68.0794 16.4697 67.2819 16.8161 66.7031 17.5088C66.1289 18.1969 65.8418 19.1517 65.8418 20.373C65.8418 21.6126 66.1335 22.5924 66.7168 23.3125C67.3001 24.0326 68.0931 24.3926 69.0957 24.3926C69.9707 24.3926 70.6816 24.1351 71.2285 23.6201C71.7754 23.1006 72.0488 22.4284 72.0488 21.6035V21.4258H69.2666V20.3457H73.2793V21.2822ZM77.5244 19.1631C76.973 19.1631 76.515 19.3545 76.1504 19.7373C75.7904 20.1156 75.5921 20.6032 75.5557 21.2002H79.418C79.4043 20.5986 79.2243 20.1087 78.8779 19.7305C78.5316 19.3522 78.0804 19.1631 77.5244 19.1631ZM79.3906 23.3262H80.5596C80.4548 23.9551 80.1266 24.4723 79.5752 24.8779C79.0283 25.2835 78.3698 25.4863 77.5996 25.4863C76.5833 25.4863 75.7835 25.1582 75.2002 24.502C74.6169 23.8457 74.3252 22.957 74.3252 21.8359C74.3252 20.724 74.6169 19.8285 75.2002 19.1494C75.7881 18.4704 76.5697 18.1309 77.5449 18.1309C78.502 18.1309 79.2585 18.4521 79.8145 19.0947C80.3704 19.7373 80.6484 20.5986 80.6484 21.6787V22.1299H75.5488V22.1982C75.5488 22.8818 75.7357 23.4287 76.1094 23.8389C76.4831 24.249 76.9889 24.4541 77.627 24.4541C78.0736 24.4541 78.4541 24.3516 78.7686 24.1465C79.083 23.9414 79.2904 23.668 79.3906 23.3262ZM82.2344 16.5381H83.4238V18.2539H84.8047V19.2314H83.4238V23.4561C83.4238 23.7796 83.4945 24.0189 83.6357 24.1738C83.777 24.3242 84.0003 24.3994 84.3057 24.3994C84.4971 24.3994 84.6611 24.388 84.7979 24.3652V25.3633C84.6429 25.3997 84.3923 25.418 84.0459 25.418C83.3942 25.418 82.9294 25.2721 82.6514 24.9805C82.3734 24.6888 82.2344 24.2012 82.2344 23.5176V19.2314H81.1748V18.2539H82.2344V16.5381ZM89.0088 25.3633V18.2539H90.1982V25.3633H89.0088ZM89.6035 17.0576C89.403 17.0576 89.2298 16.9847 89.084 16.8389C88.9382 16.693 88.8652 16.5199 88.8652 16.3193C88.8652 16.1143 88.9382 15.9411 89.084 15.7998C89.2298 15.654 89.403 15.5811 89.6035 15.5811C89.8086 15.5811 89.9841 15.654 90.1299 15.7998C90.2757 15.9411 90.3486 16.1143 90.3486 16.3193C90.3486 16.5199 90.2757 16.693 90.1299 16.8389C89.9841 16.9847 89.8086 17.0576 89.6035 17.0576ZM92.1875 16.5381H93.377V18.2539H94.7578V19.2314H93.377V23.4561C93.377 23.7796 93.4476 24.0189 93.5889 24.1738C93.7301 24.3242 93.9535 24.3994 94.2588 24.3994C94.4502 24.3994 94.6143 24.388 94.751 24.3652V25.3633C94.596 25.3997 94.3454 25.418 93.999 25.418C93.3473 25.418 92.8825 25.2721 92.6045 24.9805C92.3265 24.6888 92.1875 24.2012 92.1875 23.5176V19.2314H91.1279V18.2539H92.1875V16.5381ZM101.847 25.4863C100.853 25.4863 100.056 25.1559 99.4541 24.4951C98.8525 23.8298 98.5518 22.9342 98.5518 21.8086C98.5518 20.6829 98.8525 19.7897 99.4541 19.1289C100.056 18.4635 100.853 18.1309 101.847 18.1309C102.836 18.1309 103.631 18.4635 104.232 19.1289C104.834 19.7897 105.135 20.6829 105.135 21.8086C105.135 22.9297 104.834 23.8229 104.232 24.4883C103.631 25.1536 102.836 25.4863 101.847 25.4863ZM100.322 23.7432C100.701 24.208 101.209 24.4404 101.847 24.4404C102.485 24.4404 102.991 24.2103 103.364 23.75C103.738 23.2852 103.925 22.638 103.925 21.8086C103.925 20.9792 103.738 20.3343 103.364 19.874C102.991 19.4092 102.485 19.1768 101.847 19.1768C101.209 19.1768 100.701 19.4092 100.322 19.874C99.9486 20.3389 99.7617 20.9837 99.7617 21.8086C99.7617 22.6335 99.9486 23.2783 100.322 23.7432ZM106.338 25.3633V18.2539H107.459V19.3887H107.486C107.691 18.9922 107.985 18.6846 108.368 18.4658C108.751 18.2425 109.209 18.1309 109.742 18.1309C110.517 18.1309 111.121 18.3656 111.554 18.835C111.987 19.2998 112.203 19.9378 112.203 20.749V25.3633H111.014V20.9609C111.014 20.3822 110.877 19.9424 110.604 19.6416C110.33 19.3363 109.922 19.1836 109.38 19.1836C108.819 19.1836 108.37 19.3659 108.033 19.7305C107.696 20.0951 107.527 20.5781 107.527 21.1797V25.3633H106.338Z" fill="white" fill-opacity="0.7"/>
    <path d="M74.8613 40.6592C74.8613 42.1904 74.4264 43.3883 73.5566 44.2529C72.6921 45.1175 71.4889 45.5498 69.9473 45.5498C68.3014 45.5498 66.9993 45.0264 66.041 43.9795C65.0879 42.9274 64.6113 41.4951 64.6113 39.6826C64.6113 37.8962 65.0853 36.4873 66.0332 35.4561C66.9863 34.4196 68.278 33.9014 69.9082 33.9014C71.1895 33.9014 72.2754 34.2477 73.166 34.9404C74.0566 35.6331 74.5931 36.5446 74.7754 37.6748H72.7285C72.5358 37.029 72.1921 36.5238 71.6973 36.1592C71.2025 35.7946 70.6087 35.6123 69.916 35.6123C68.9004 35.6123 68.1061 35.9691 67.5332 36.6826C66.9603 37.3962 66.6738 38.3883 66.6738 39.6592C66.6738 40.9561 66.9681 41.9769 67.5566 42.7217C68.1504 43.4665 68.9551 43.8389 69.9707 43.8389C70.8197 43.8389 71.5124 43.5941 72.0488 43.1045C72.5905 42.6149 72.8691 41.9743 72.8848 41.1826L72.8926 40.9951H70.1738V39.4561H74.8613V40.6592ZM82.9004 44.3779C82.1764 45.1436 81.2025 45.5264 79.9785 45.5264C78.7546 45.5264 77.7806 45.1436 77.0566 44.3779C76.3327 43.6071 75.9707 42.555 75.9707 41.2217C75.9707 39.8936 76.3353 38.8441 77.0645 38.0732C77.7936 37.2972 78.765 36.9092 79.9785 36.9092C81.1973 36.9092 82.1686 37.2972 82.8926 38.0732C83.6217 38.8441 83.9863 39.8936 83.9863 41.2217C83.9863 42.555 83.6244 43.6071 82.9004 44.3779ZM78.4941 43.2607C78.8587 43.7451 79.3535 43.9873 79.9785 43.9873C80.6035 43.9873 81.0983 43.7451 81.4629 43.2607C81.8275 42.7764 82.0098 42.0967 82.0098 41.2217C82.0098 40.3519 81.8275 39.6748 81.4629 39.1904C81.0983 38.7008 80.6035 38.4561 79.9785 38.4561C79.3587 38.4561 78.8639 38.7008 78.4941 39.1904C78.1296 39.6748 77.9473 40.3519 77.9473 41.2217C77.9473 42.0967 78.1296 42.7764 78.4941 43.2607ZM91.8223 44.3779C91.0983 45.1436 90.1244 45.5264 88.9004 45.5264C87.6764 45.5264 86.7025 45.1436 85.9785 44.3779C85.2546 43.6071 84.8926 42.555 84.8926 41.2217C84.8926 39.8936 85.2572 38.8441 85.9863 38.0732C86.7155 37.2972 87.6869 36.9092 88.9004 36.9092C90.1191 36.9092 91.0905 37.2972 91.8145 38.0732C92.5436 38.8441 92.9082 39.8936 92.9082 41.2217C92.9082 42.555 92.5462 43.6071 91.8223 44.3779ZM87.416 43.2607C87.7806 43.7451 88.2754 43.9873 88.9004 43.9873C89.5254 43.9873 90.0202 43.7451 90.3848 43.2607C90.7494 42.7764 90.9316 42.0967 90.9316 41.2217C90.9316 40.3519 90.7494 39.6748 90.3848 39.1904C90.0202 38.7008 89.5254 38.4561 88.9004 38.4561C88.2806 38.4561 87.7858 38.7008 87.416 39.1904C87.0514 39.6748 86.8691 40.3519 86.8691 41.2217C86.8691 42.0967 87.0514 42.7764 87.416 43.2607ZM97.8145 43.8232C98.4395 43.8232 98.9369 43.5889 99.3066 43.1201C99.6764 42.6462 99.8613 42.0055 99.8613 41.1982C99.8613 40.3909 99.6738 39.7477 99.2988 39.2686C98.929 38.7842 98.4342 38.542 97.8145 38.542C97.1999 38.542 96.7103 38.7816 96.3457 39.2607C95.9863 39.7399 95.8066 40.3857 95.8066 41.1982C95.8066 42.016 95.9863 42.6592 96.3457 43.1279C96.7103 43.5915 97.1999 43.8232 97.8145 43.8232ZM97.8066 48.4873C96.791 48.4873 95.9421 48.2529 95.2598 47.7842C94.5827 47.3206 94.1947 46.7217 94.0957 45.9873H96.0254C96.1296 46.305 96.3483 46.5602 96.6816 46.7529C97.015 46.9508 97.4108 47.0498 97.8691 47.0498C98.4941 47.0498 98.9811 46.8883 99.3301 46.5654C99.6842 46.2477 99.8613 45.8206 99.8613 45.2842V43.8857H99.8145C99.5957 44.3389 99.2546 44.7008 98.791 44.9717C98.3327 45.2373 97.8092 45.3701 97.2207 45.3701C96.1895 45.3701 95.3639 44.9951 94.7441 44.2451C94.1244 43.4899 93.8145 42.4717 93.8145 41.1904C93.8145 39.8831 94.1244 38.8493 94.7441 38.0889C95.3639 37.3232 96.2025 36.9404 97.2598 36.9404C97.8431 36.9404 98.3639 37.0811 98.8223 37.3623C99.2806 37.6383 99.6296 38.0186 99.8691 38.5029H99.9004V37.0811H101.807V45.2295C101.807 46.2191 101.442 47.0081 100.713 47.5967C99.9837 48.1904 99.015 48.4873 97.8066 48.4873ZM103.447 45.3623V34.0889H105.393V45.3623H103.447ZM110.619 38.417C110.077 38.417 109.624 38.6045 109.26 38.9795C108.9 39.3493 108.7 39.8258 108.658 40.4092H112.525C112.505 39.8206 112.32 39.3415 111.971 38.9717C111.622 38.6019 111.171 38.417 110.619 38.417ZM112.533 42.8857H114.354C114.229 43.6722 113.83 44.3102 113.158 44.7998C112.486 45.2842 111.663 45.5264 110.689 45.5264C109.45 45.5264 108.476 45.1462 107.768 44.3857C107.059 43.6201 106.705 42.5758 106.705 41.2529C106.705 39.9404 107.057 38.8883 107.76 38.0967C108.468 37.305 109.419 36.9092 110.611 36.9092C111.783 36.9092 112.713 37.2868 113.4 38.042C114.088 38.792 114.432 39.7972 114.432 41.0576V41.6904H108.643V41.8076C108.643 42.4743 108.83 43.0107 109.205 43.417C109.585 43.8232 110.093 44.0264 110.729 44.0264C111.176 44.0264 111.562 43.9248 111.885 43.7217C112.213 43.5133 112.429 43.2347 112.533 42.8857ZM119.088 34.0889H123.471C124.596 34.0889 125.51 34.4378 126.213 35.1357C126.916 35.8284 127.268 36.7373 127.268 37.8623C127.268 38.9821 126.906 39.8909 126.182 40.5889C125.463 41.2868 124.531 41.6357 123.385 41.6357H121.104V45.3623H119.088V34.0889ZM121.104 35.7373V40.0107H122.932C123.656 40.0107 124.218 39.8232 124.619 39.4482C125.02 39.0732 125.221 38.5446 125.221 37.8623C125.221 37.1852 125.02 36.6618 124.619 36.292C124.223 35.9222 123.663 35.7373 122.939 35.7373H121.104ZM128.604 45.3623V34.0889H130.549V45.3623H128.604ZM135.229 44.0264C135.786 44.0264 136.255 43.8623 136.635 43.5342C137.02 43.2008 137.213 42.7868 137.213 42.292V41.6592L135.299 41.7764C134.83 41.8076 134.466 41.9248 134.205 42.1279C133.95 42.3258 133.822 42.5889 133.822 42.917C133.822 43.2555 133.95 43.5264 134.205 43.7295C134.466 43.9274 134.807 44.0264 135.229 44.0264ZM134.643 45.4951C133.835 45.4951 133.171 45.2633 132.65 44.7998C132.135 44.3363 131.877 43.7347 131.877 42.9951C131.877 42.2607 132.148 41.68 132.689 41.2529C133.236 40.8258 134.015 40.5811 135.025 40.5186L137.213 40.3936V39.7998C137.213 39.3675 137.075 39.0316 136.799 38.792C136.528 38.5524 136.15 38.4326 135.666 38.4326C135.213 38.4326 134.843 38.5342 134.557 38.7373C134.27 38.9404 134.096 39.2165 134.033 39.5654H132.229C132.27 38.779 132.606 38.1409 133.236 37.6514C133.872 37.1566 134.708 36.9092 135.744 36.9092C136.77 36.9092 137.591 37.1592 138.205 37.6592C138.825 38.1592 139.135 38.8258 139.135 39.6592V45.3623H137.26V44.042H137.221C136.986 44.4847 136.632 44.8389 136.158 45.1045C135.684 45.3649 135.179 45.4951 134.643 45.4951ZM141.596 48.4404C141.174 48.4404 140.919 48.43 140.83 48.4092V46.8701C140.919 46.891 141.106 46.9014 141.393 46.9014C141.794 46.9014 142.106 46.818 142.33 46.6514C142.554 46.4847 142.721 46.2113 142.83 45.8311C142.83 45.8258 142.848 45.7503 142.885 45.6045C142.926 45.4587 142.945 45.3805 142.939 45.3701L139.994 37.0811H142.119L144.072 43.7061H144.104L146.057 37.0811H148.104L145.111 45.6904C144.757 46.7165 144.32 47.43 143.799 47.8311C143.278 48.2373 142.544 48.4404 141.596 48.4404Z" fill="white"/>
    <path d="M48.1052 31.7854L43.9352 33.8704C43.6502 34.0204 43.3052 33.9604 43.0652 33.7354L40.2602 30.9304C39.9602 30.6304 39.9602 30.1654 40.2602 29.8654L43.1102 27.0154C43.3352 26.7904 43.6952 26.7304 43.9802 26.8804L48.1052 28.9504C49.2902 29.5204 49.2902 31.2004 48.1052 31.7854Z" fill="#EEC931"/>
    <path d="M40.4553 25.0955C40.9203 25.3205 41.0103 25.9356 40.6503 26.2956L38.1453 28.8005L37.0803 29.8656C36.7803 30.1656 36.3153 30.1656 36.0153 29.8656L25.3053 19.1556C24.7053 18.5556 25.4103 17.5806 26.1753 17.9556L40.4553 25.0955Z" fill="#8EED7F"/>
    <path d="M19.0049 42.585V17.58C19.0049 16.92 19.7999 16.575 20.2799 17.04L33.4349 29.805C33.7499 30.105 33.7349 30.5999 33.4199 30.8999L20.2649 43.14C19.7849 43.59 19.0049 43.245 19.0049 42.585Z" fill="#82D5FD"/>
    <path d="M40.4097 35.6404L26.3247 42.6904C25.5597 43.0654 24.8547 42.0905 25.4547 41.4905L36.0297 30.9154C36.3297 30.6154 36.7947 30.6154 37.0947 30.9154L40.6197 34.4404C40.9647 34.8004 40.8597 35.4154 40.4097 35.6404Z" fill="#CE3C4B"/>
</svg>
